<?xml version="1.0" standalone="no"?>
<!DOCTYPE svg PUBLIC "-//W3C//DTD SVG 20010904//EN"
 "http://www.w3.org/TR/2001/REC-SVG-20010904/DTD/svg10.dtd">
<svg version="1.0" xmlns="http://www.w3.org/2000/svg"
 width="200.000000pt" height="200.000000pt" viewBox="0 0 200.000000 200.000000"
 preserveAspectRatio="xMidYMid meet">

<g transform="translate(0.000000,200.000000) scale(0.100000,-0.100000)"
fill="#000000" stroke="none">
<path d="M0 1000 l0 -1000 1000 0 1000 0 0 1000 0 1000 -1000 0 -1000 0 0
-1000z m448 166 c114 -60 138 -212 46 -298 -85 -79 -223 -60 -281 40 -50 85
-22 197 62 248 47 28 129 33 173 10z m522 -141 c0 -67 3 -87 15 -91 8 -4 15
-13 15 -21 0 -10 -9 -13 -32 -11 l-33 3 -3 103 c-3 97 -2 102 18 102 19 0 20
-6 20 -85z m680 60 c0 -18 -5 -25 -20 -25 -15 0 -20 7 -20 25 0 18 5 25 20 25
15 0 20 -7 20 -25z m-762 3 c15 -15 16 -64 2 -73 -7 -4 -5 -14 5 -28 37 -53 8
-87 -76 -87 l-59 0 0 100 0 100 58 0 c32 0 63 -5 70 -12z m172 -93 c0 -48 2
-55 20 -55 18 0 20 7 20 55 0 52 1 55 25 55 24 0 25 -2 25 -75 l0 -75 -42 -2
c-94 -3 -98 0 -98 90 0 60 1 62 25 62 24 0 25 -3 25 -55z m224 39 c31 -31 16
-71 -30 -80 -40 -7 -36 -24 7 -24 18 0 29 -5 29 -14 0 -27 -74 -29 -107 -3
-19 14 -16 102 3 121 8 9 31 16 49 16 18 0 41 -7 49 -16z m146 -3 c0 -15 -8
-21 -32 -23 -30 -3 -33 -6 -33 -38 0 -33 2 -35 38 -38 47 -4 49 -27 2 -36 -63
-12 -103 33 -90 101 7 39 27 52 78 53 30 0 37 -4 37 -19z m140 4 c22 -27 24
-88 2 -115 -22 -27 -79 -33 -106 -11 -22 18 -22 104 0 125 20 20 88 21 104 1z
m80 -60 c0 -68 -2 -75 -20 -75 -18 0 -20 7 -20 75 0 68 2 75 20 75 18 0 20 -7
20 -75z m150 65 c9 -5 16 -33 18 -74 4 -65 4 -66 -21 -66 -24 0 -26 4 -29 53
-2 38 -7 52 -18 52 -11 0 -16 -14 -18 -52 -3 -49 -5 -53 -28 -53 -23 0 -24 2
-24 74 l0 73 53 1 c30 0 60 -3 67 -8z"/>
<path d="M384 1055 c-44 -20 -53 -30 -72 -76 -12 -29 -21 -54 -19 -56 2 -2 27
7 55 19 50 22 56 31 88 106 17 37 15 38 -52 7z m4 -53 c3 -16 -2 -22 -17 -22
-26 0 -36 17 -20 36 16 19 33 13 37 -14z"/>
<path d="M810 1040 c0 -13 7 -20 20 -20 13 0 20 7 20 20 0 13 -7 20 -20 20
-13 0 -20 -7 -20 -20z"/>
<path d="M810 960 c0 -15 7 -20 25 -20 18 0 25 5 25 20 0 15 -7 20 -25 20 -18
0 -25 -5 -25 -20z"/>
<path d="M1220 1000 c0 -5 9 -10 21 -10 11 0 17 5 14 10 -3 6 -13 10 -21 10
-8 0 -14 -4 -14 -10z"/>
<path d="M1494 985 c-4 -18 -1 -32 10 -43 21 -21 39 -4 34 34 -4 39 -35 45
-44 9z"/>
</g>
</svg>
