<svg version="1.2" xmlns="http://www.w3.org/2000/svg" viewBox="0 0 151 24" width="151" height="24">
	<title>logo-svg</title>
	<style>
		tspan { white-space:pre } 
		.s0 { fill: #faf8f7 } 
		.s1 { fill: #0584ff } 
		.t2 { font-size: 24px;fill: #0584ff;font-weight: 400;font-family: "DejaVuSans", "DejaVu Sans" } 
	</style>
	<path class="s0" d="m16.9 20.3c-6.4 2-16.8-0.1-16.9-9-0.1-8.9 11-3.6 11-3.6z"/>
	<path class="s0" d="m3.1 6.4c4.5-0.8 7.9 5.1 11.7 11.3 3.7 6.2 13.6 8.7 19.8 3.5 6.3-5.2 8.9-14.4 1.2-19.8-7.6-5.5-12.5 6.9-19.1 7.2-6.6 0.4-6.7-4.5-13.6-2.2z"/>
	<path class="s1" d="m35.2 13.6c-1.1 0-2-0.9-2-2 0-1.1 0.9-1.9 2-1.9 1.1 0 2 0.8 2 1.9 0 1.1-0.9 2-2 2z"/>
	<path class="s1" d="m31.4 14.6c-0.8 0-1.4-0.7-1.4-1.5 0-0.8 0.6-1.5 1.4-1.5 0.8 0 1.5 0.7 1.5 1.5 0 0.8-0.7 1.5-1.5 1.5z"/>
	<path class="s1" d="m34 16.2c-0.6 0-1.1-0.5-1.1-1.1 0-0.7 0.5-1.2 1.1-1.2 0.7 0 1.2 0.5 1.2 1.2 0 0.6-0.5 1.1-1.2 1.1z"/>
	<path fill-rule="evenodd" class="s1" d="m47.1-31v-16.8h6.8q2.6 0 3.9 1.2 1.4 1.2 1.4 3.1 0 1.6-0.8 2.6-0.9 0.9-2.1 1.2 1.4 0.3 2.4 1.5 0.9 1.1 0.9 2.6 0 2-1.4 3.3-1.5 1.3-4.1 1.3zm3.1-9.7h3.2q1.3 0 2-0.6 0.7-0.6 0.7-1.7 0-1.1-0.7-1.7-0.7-0.6-2.1-0.6h-3.1zm0 7.2h3.4q1.4 0 2.1-0.6 0.8-0.7 0.8-1.8 0-1.2-0.8-1.9-0.8-0.6-2.2-0.6h-3.3zm15.1 2.8q-1.5 0-2.5-0.5-1-0.5-1.5-1.3-0.5-0.9-0.5-1.8 0-1.7 1.3-2.7 1.3-1.1 3.9-1.1h3v-0.2q0-1.3-0.6-1.8-0.7-0.6-1.8-0.6-0.9 0-1.6 0.4-0.7 0.5-0.9 1.3h-3q0.1-1.3 0.9-2.2 0.8-1 2-1.5 1.2-0.5 2.6-0.5 2.6 0 4.1 1.3 1.4 1.2 1.4 3.6v7.3h-2.6l-0.3-1.9q-0.5 0.9-1.5 1.5-0.9 0.7-2.4 0.7zm0.7-2.4q1.3 0 2-0.9 0.8-0.9 1-2.1h-2.6q-1.3 0-1.8 0.4-0.5 0.4-0.5 1.1 0 0.7 0.5 1.1 0.5 0.4 1.4 0.4zm13.2 2.1q-1.8 0-3-0.9-1.1-1-1.1-3.3v-5.2h-2v-2.5h2l0.4-3.2h2.7v3.2h3.2v2.5h-3.2v5.2q0 0.9 0.3 1.2 0.4 0.4 1.3 0.4h1.5v2.6zm8 0.3q-1.6 0-2.6-0.5-0.9-0.5-1.4-1.3-0.5-0.9-0.5-1.8 0-1.7 1.3-2.7 1.3-1.1 3.9-1.1h3v-0.2q0-1.3-0.7-1.8-0.7-0.6-1.7-0.6-1 0-1.6 0.4-0.7 0.5-0.9 1.3h-3q0.1-1.3 0.9-2.2 0.7-1 1.9-1.5 1.2-0.5 2.7-0.5 2.6 0 4 1.3 1.5 1.2 1.5 3.6v7.3h-2.6l-0.3-1.9q-0.6 0.9-1.5 1.5-0.9 0.7-2.4 0.7zm0.7-2.4q1.3 0 2-0.9 0.7-0.9 0.9-2.1h-2.6q-1.2 0-1.7 0.4-0.6 0.4-0.6 1.1 0 0.7 0.6 1.1 0.5 0.4 1.4 0.4zm13.2 2.1q-1.9 0-3-0.9-1.1-1-1.1-3.3v-5.2h-2.1v-2.5h2.1l0.3-3.2h2.7v3.2h3.3v2.5h-3.3v5.2q0 0.9 0.4 1.2 0.4 0.4 1.3 0.4h1.5v2.6zm7.9 0.3q-1.5 0-2.5-0.5-1-0.5-1.5-1.3-0.4-0.9-0.4-1.8 0-1.7 1.3-2.7 1.2-1.1 3.8-1.1h3.1v-0.2q0-1.3-0.7-1.8-0.7-0.6-1.8-0.6-0.9 0-1.6 0.4-0.7 0.5-0.9 1.3h-3q0.2-1.3 0.9-2.2 0.8-1 2-1.5 1.2-0.5 2.7-0.5 2.5 0 4 1.3 1.4 1.2 1.4 3.6v7.3h-2.6l-0.3-1.9q-0.5 0.9-1.5 1.5-0.9 0.7-2.4 0.7zm0.7-2.4q1.3 0 2.1-0.9 0.7-0.9 0.9-2.1h-2.6q-1.2 0-1.8 0.4-0.5 0.4-0.5 1.1 0 0.7 0.5 1.1 0.6 0.4 1.4 0.4zm15.2 2.4q-1.4 0-2.4-0.5-1-0.5-1.6-1.5l-0.4 1.7h-2.7v-17.3h3.1v7.1q0.6-0.8 1.5-1.4 1-0.6 2.5-0.6 1.6 0 3 0.8 1.3 0.8 2.1 2.2 0.7 1.4 0.7 3.2 0 1.8-0.7 3.3-0.8 1.4-2.1 2.2-1.4 0.8-3 0.8zm-0.7-2.7q1.5 0 2.4-1 1-1 1-2.6 0-1.5-1-2.5-0.9-1-2.4-1-1.5 0-2.4 1-1 1-1 2.5 0 1.6 1 2.6 0.9 1 2.4 1zm10-11.4q-0.9 0-1.4-0.5-0.6-0.5-0.6-1.3 0-0.7 0.6-1.2 0.5-0.5 1.4-0.5 0.8 0 1.3 0.5 0.6 0.5 0.6 1.2 0 0.8-0.6 1.3-0.5 0.5-1.3 0.5zm-1.6 13.8v-11.9h3.1v11.9zm10.6 0q-1.9 0-3-0.9-1.1-1-1.1-3.3v-5.2h-2v-2.5h2l0.4-3.2h2.7v3.2h3.2v2.5h-3.2v5.2q0 0.9 0.3 1.2 0.4 0.4 1.3 0.4h1.5v2.6z"/>
	<text id="Bluecoin" style="transform: matrix(1,0,0,1,45,21)" >
		<tspan x="0" y="0" class="t2">B</tspan><tspan  y="0" class="t2">l</tspan><tspan  y="0" class="t2">u</tspan><tspan  y="0" class="t2">e</tspan><tspan  y="0" class="t2">c</tspan><tspan  y="0" class="t2">o</tspan><tspan  y="0" class="t2">i</tspan><tspan  y="0" class="t2">n
</tspan>
	</text>
</svg>